PathFileType	4	(X/Y/Z)	61_1_43_p0_0-436.trc
DataRate	CameraRate	NumFrames	NumMarkers	Units	OrigDataRate	OrigDataStartFrame	OrigNumFrames
47.0	47.0	7	27	m	47.0	163	437
Frame#	Time	RHip			RKnee			RAnkle			RBigToe			RSmallToe			RHeel			LHip			LKnee			LAnkle			LBigToe			LSmallToe			LHeel			Neck			Head			Nose			RShoulder			RElbow			RWrist			RThumb			RIndex			RPinky			LShoulder			LElbow			LWrist			LThumb			LIndex			LPinky			
		X1	Y1	Z1	X2	Y2	Z2	X3	Y3	Z3	X4	Y4	Z4	X5	Y5	Z5	X6	Y6	Z6	X7	Y7	Z7	X8	Y8	Z8	X9	Y9	Z9	X10	Y10	Z10	X11	Y11	Z11	X12	Y12	Z12	X13	Y13	Z13	X14	Y14	Z14	X15	Y15	Z15	X16	Y16	Z16	X17	Y17	Z17	X18	Y18	Z18	X19	Y19	Z19	X20	Y20	Z20	X21	Y21	Z21	X22	Y22	Z22	X23	Y23	Z23	X24	Y24	Z24	X25	Y25	Z25	X26	Y26	Z26	X27	Y27	Z27	
163	3.4680851063829787	0.324245138166598	0.6708129841799466	0.948048401418568	0.34544366211705835	0.7678846266222354	1.3608970865987786	0.34459330161029755	0.8990591261699825	1.7894212957384743	0.3223253914683969	0.7280026193754203	1.8189690820422313	0.39734078638651066	0.7650129394358	1.8112118171770837	0.30863321367413593	0.9435679667227912	1.8230083011345353	0.14099631503390664	0.5874328799506594	0.9531372082457424	0.09294382688558034	0.7318468383450736	1.3734282705477705	0.07503709224934757	0.8264463587020047	1.790763713477065	0.14682321750942562	0.6733435983757439	1.8196824080767204	0.07896503189925795	0.71836478674114	1.8293685858681752	0.038580711747521076	0.9688410103503727	1.8600117187101446	0.24551146286163056	0.4616393270841812	0.4296164396825968	0.2670638407620139	0.3648512580278767	0.21703658953702987	0.2786589062277311	0.33405118241232246	0.3341830778917263	0.4077405870970635	0.5327043470882277	0.5044219809411201	0.45102314771789564	0.5626102935553524	0.7195564896769765	0.3745710120621781	0.35436775408816634	0.7162449072586026	0.29650291679560803	0.262704248435472	0.6779435049016442	0.3056535195335368	0.24372603055360526	0.6833751251665192	0.3250494698420006	0.26010900377814833	0.7499730667964355	0.107536167111083	0.4643404072145552	0.5081129847993585	-0.035762595448988965	0.5760745880303497	0.7100152532184987	0.010954561984681399	0.547615440430555	0.9126572206863689	0.06516218478367339	0.5531578497156485	0.9864795620159172	0.04711913709119053	0.5355022994006835	1.0127508702705834	0.005645539056187931	0.5724836833128052	1.0268153612471105
164	3.4893617021276597	0.3236119792465264	0.6687024652225568	0.9438676122200274	0.34038695047557926	0.7836290560603058	1.3648426553902346	0.33928289100536696	0.89394447016598	1.7839224384732555	0.32225798463145344	0.7276369390058242	1.8192621072197253	0.3952125228443841	0.7488257135685268	1.8106087962690491	0.3085792435894938	0.9431210235492584	1.8230698947000312	0.1348870286797865	0.600914533756212	0.9546523720701441	0.09307011100396748	0.7275436946184612	1.3643520568159349	0.07502631823614542	0.8265559263286731	1.7908729651884905	0.1408112797841939	0.6889345295474978	1.826087838944228	0.07266372733947318	0.7336459154361886	1.835671307114832	0.03853102387668562	0.9688980734900219	1.859998286706783	0.24973525996897	0.4654092130670203	0.4358390856051472	0.2719476102221208	0.35314089467810295	0.2186848160662471	0.2821703472344144	0.33582740778971854	0.33384144315633113	0.4077224420764939	0.5330111330080896	0.504356906589172	0.4551228224400937	0.5504199855339534	0.7217391690813735	0.3659471192067579	0.3650339967588272	0.7134361697234383	0.2918463375936935	0.262628340168643	0.6751681073602527	0.2994308841332605	0.24265911602920007	0.6813642018229228	0.3213637487371172	0.25932018994493483	0.7439699615893921	0.10726000729873379	0.4645077422020648	0.5048375268313401	-0.03633466520765395	0.5761575602428822	0.7062259926518135	0.003087487696497255	0.5473652986359518	0.9131875881683363	0.06468013804720511	0.555492388147686	0.9867969103186884	0.04704301174714814	0.5359219896590106	1.0159019019717044	-0.001329192064781091	0.585747981153886	1.0287145718409598
165	3.5106382978723403	0.32413555845041964	0.6712235501377376	0.9478786713869257	0.3411348438289423	0.7864744246237152	1.3610754550639297	0.3398357149004035	0.8925982229964252	1.7875673281252198	0.32322970896404996	0.7306862104228308	1.8250617681484913	0.3981059545663276	0.7637209804531621	1.8162093635630876	0.30833370315424896	0.9415581533776223	1.8236456786293198	0.12843070488407718	0.6151520152794697	0.9528480770448626	0.09229762745465901	0.7286713460445517	1.3683801517600522	0.07495149147828395	0.8267289995771677	1.7909688928722407	0.151086957165691	0.676831004005922	1.8207830416308737	0.0832537323131094	0.7215029039199219	1.8305790913679834	0.034532566048999624	0.9658978988695505	1.859015388104931	0.24979249187693334	0.46542816834191886	0.4358635854523422	0.2692517521668879	0.3759263604756223	0.2151217029282363	0.2822140345679598	0.3359206403879563	0.33373523954102247	0.4078039092362432	0.5330383767398107	0.504401043729914	0.45448911484907983	0.5509727885987142	0.7180380076059322	0.3653735616185814	0.36526922179367366	0.7097188195400571	0.2872261904314797	0.27341310015162423	0.6726131826264945	0.2962884154120551	0.2519611187668909	0.6741309099368261	0.31024431406506114	0.2683311402579579	0.7385059223033398	0.11142670106448403	0.4659548359052041	0.5078011331795818	-0.03635952810110056	0.5761725081917775	0.7062163959991815	-0.0034836431451603783	0.5605110505219516	0.9147628447805647	0.060440496329859324	0.5538362506690898	0.9868106834962564	0.032791536456585654	0.5470632555691655	1.0189661506107277	-0.013664719994136269	0.6267333991362491	1.0347475348967243
166	3.5319148936170213	0.32400148827328595	0.6712855030243625	0.9477411152436875	0.34024992951956173	0.7835407326495697	1.3563784296318255	0.34031487106886593	0.8968963292817127	1.7892474514382841	0.3232788684468327	0.7308346864103542	1.8243884348979715	0.3943924920029756	0.7496254002147378	1.8060817975380312	0.30873452640990523	0.9433154566164599	1.8229560534814586	0.1343327238657487	0.601494549876493	0.9511453635746873	0.09307022724320839	0.7273003795440905	1.3640685727024071	0.07322081236819523	0.8106924744025765	1.785872534662646	0.14699501684136676	0.6739398261338697	1.8200378199552782	0.08341178467523352	0.7213745790021248	1.830583105481189	0.03335864799788851	0.9668312960588494	1.8647596966632285	0.24995118469941566	0.4653866006780543	0.43598942889387643	0.273419237363937	0.37749250869072465	0.21470669835395148	0.28255702606770533	0.3378114466563936	0.33699612378309846	0.4032827528764283	0.5473353658412479	0.504021567224458	0.4548067144449376	0.5381098173341223	0.7177845346951688	0.36180283125440255	0.35260505404119546	0.7025524212949709	0.2870628081496904	0.2734668940513023	0.672219299136749	0.29438841791839604	0.2414606545735999	0.6741680032160878	0.3055125511456026	0.2787002823946831	0.7358840379659792	0.1114681238792432	0.46605031313697437	0.5080176878558506	-0.03641383184117519	0.5760470117188893	0.7063035402838004	-0.010091201702029947	0.5737581211070987	0.9163386148984095	0.05948908742219453	0.5553431865584664	0.9907109165247301	0.0313788952987477	0.548735074171641	1.0157203011142197	-0.013834735748197383	0.6276366911845095	1.0346742192511678
167	3.5531914893617023	0.3239941431143406	0.6714470974941085	0.9477234595357612	0.340132364939549	0.787822145870799	1.3651513482044777	0.34031756763506166	0.8969097809545188	1.7894795141159332	0.32329160594243406	0.7309499550274415	1.8245255832444593	0.39729267676444413	0.7647141250860701	1.811172733581854	0.30858487856245476	0.9425362052809034	1.823410378315936	0.13426757205368803	0.6015290949407393	0.951114278396699	0.09152242060528053	0.7127761007828592	1.3611169701258976	0.0689108114479043	0.807627841991192	1.7851388069112137	0.141064561899209	0.6894794091782811	1.8264103047425448	0.0728504057669088	0.7343652345856051	1.836351379584858	0.03448005372610939	0.965385054873873	1.8588723035010748	0.2499846892448712	0.46701916205888394	0.43629582536081307	0.2783767952865107	0.3658533788446891	0.21633557886436253	0.29086098456287507	0.32834645610332003	0.3377637219530376	0.4061803731802746	0.5589753557298394	0.50734773127929	0.4591038415903737	0.5381009350077612	0.7238847962256324	0.36458874421411075	0.3630567592804981	0.706019553731218	0.28187826333318855	0.2842881475915247	0.6691757534581065	0.2899145961815497	0.2515111410653788	0.6718893716632405	0.30545019535895296	0.27824728408933447	0.7294811748106802	0.11127356009960519	0.4664231368871763	0.511241998776904	-0.03760669290712788	0.5635906802238666	0.7061735757592539	-0.020722224593504604	0.585065357805906	0.9180410715578446	0.05344740907787296	0.5657271910122255	0.9846483612963601	0.025242518508777605	0.5609106094252512	1.0134590234044787	-0.017921825077055226	0.626765090012518	1.035134318288348
168	3.574468085106383	0.31916673875142615	0.6855943543200358	0.9454375783911704	0.3418686393130506	0.7854283808149459	1.3609541321507725	0.34094359247114564	0.8952761385400372	1.7930199409326617	0.3304556974457551	0.7468766821769943	1.8294579456297388	0.39757616567553605	0.7649003928925817	1.8113202747466413	0.3045311562735033	0.9363348360734625	1.82571081927758	0.1346276714859497	0.6010309569094819	0.9473864385195626	0.09240991382194963	0.7114961322587674	1.356639512584353	0.0731560226749536	0.8106784706417585	1.7854944025108797	0.14079398342491936	0.689651749507401	1.8263971050208863	0.07256285393581047	0.7343561722595108	1.8360673800839782	0.03841703956295266	0.968520338008805	1.859514141206018	0.2553308961239369	0.45422949959018705	0.4401329297698143	0.282363500807289	0.3666603634926227	0.21589216930283311	0.29135970624980356	0.32835825691981047	0.3409524027677241	0.41079155156886105	0.5443724923211801	0.5077129458633283	0.4592945002638998	0.537952772983143	0.7240568681610153	0.3617231774804388	0.3522138590137085	0.7026066729219472	0.28770968836338645	0.2620180867079256	0.6626820832941086	0.29067138377038215	0.2407821251913279	0.6716582881608859	0.2950675969725767	0.3009851817139199	0.7235623204441911	0.10773222566258807	0.46414407092008636	0.5082067178442903	-0.03779215979947307	0.5635986668551607	0.7061167268207015	-0.02817054396062118	0.5808439077814227	0.910870811914488	0.048897519873857063	0.5620727105369243	0.9841475216190311	0.01294669887520969	0.5720559015194069	1.0069548480110204	-0.026091477758723933	0.6216069693718507	1.0239505786562344
169	3.595744680851064	0.3242469326408479	0.670985928490162	0.9436640110402742	0.3368935992494183	0.7837841281839453	1.3569104918917856	0.34087475455140404	0.8951996068149098	1.7928199029217158	0.33032846891171636	0.7468732811812251	1.829536332511558	0.39747596835015075	0.7648638854991932	1.8113629363902013	0.3088577080538856	0.9410221571431967	1.8264924142402792	0.13464709439342618	0.6009490135790919	0.9471806886843599	0.09219208812589624	0.7155129701665185	1.3655445757429059	0.073039429352308	0.8105872444359944	1.785473160327147	0.14169010930380488	0.6926369267314293	1.8315932786756968	0.07264338022893223	0.7342290194185696	1.836093257146538	0.03829776369056936	0.9686991752757218	1.8595961509752488	0.24983200215362725	0.46475041056418886	0.43599061968509134	0.28240950856522623	0.3665958629778845	0.21587733273524087	0.2950050621498745	0.3299715658163885	0.3404999898076701	0.4107558220015929	0.5445798757853638	0.5077512226429811	0.4593777523162844	0.5377716415857224	0.7240195618358933	0.36212467931396175	0.3522652336769728	0.7060995704519674	0.2781172464062885	0.28376016941921706	0.666452558350632	0.28126939370445847	0.2621775123938572	0.6724257924693967	0.2945054069728739	0.3018462365168611	0.723473572858704	0.10769499971917158	0.4640763307182333	0.5082543532346588	-0.03781045209498668	0.5633038458282432	0.7060353626784936	-0.028361314076556968	0.5807458633668138	0.9033185007991235	0.04462017568525981	0.5600750781141596	0.980619956834831	0.0065910256104745905	0.5847770641959864	1.0056012545220014	-0.026195258289170013	0.6217099238969079	1.0161643850645234
